<?xml version="1.0" encoding="utf-8"?>
<!-- Generator: Adobe Illustrator 17.0.0, SVG Export Plug-In . SVG Version: 6.00 Build 0)  -->
<!DOCTYPE svg PUBLIC "-//W3C//DTD SVG 1.1//EN" "http://www.w3.org/Graphics/SVG/1.1/DTD/svg11.dtd">
<svg version="1.1" id="Capa_1" xmlns="http://www.w3.org/2000/svg" xmlns:xlink="http://www.w3.org/1999/xlink" x="0px" y="0px"
	 width="30px" height="30px" viewBox="497 497 30 30" enable-background="new 497 497 30 30" xml:space="preserve">
<path d="M512,498.345c-7.731,0-14,6.269-14,14c0,6.187,4.011,11.433,9.575,13.284c0.7,0.128,0.955-0.304,0.955-0.673
	c0-0.333-0.013-1.437-0.02-2.606c-3.893,0.846-4.716-1.651-4.716-1.651c-0.637-1.617-1.554-2.047-1.554-2.047
	c-1.272-0.868,0.096-0.851,0.096-0.851c1.406,0.097,2.146,1.442,2.146,1.442c1.249,2.14,3.278,1.521,4.074,1.162
	c0.127-0.902,0.49-1.521,0.889-1.87c-3.108-0.354-6.377-1.555-6.377-6.92c0-1.53,0.546-2.777,1.44-3.757
	c-0.143-0.355-0.625-1.78,0.138-3.707c0,0,1.174-0.376,3.85,1.436c1.116-0.312,2.313-0.466,3.503-0.471
	c1.189,0.005,2.387,0.161,3.505,0.473c2.671-1.813,3.847-1.436,3.847-1.436c0.766,1.929,0.284,3.351,0.14,3.705
	c0.897,0.98,1.439,2.228,1.439,3.757c0,5.378-3.274,6.562-6.393,6.909c0.504,0.434,0.95,1.285,0.95,2.591
	c0,1.871-0.019,3.38-0.019,3.842c0,0.373,0.255,0.808,0.964,0.672c5.559-1.854,9.567-7.101,9.567-13.284
	C526,504.614,519.731,498.345,512,498.345z"/>
</svg>
