<?xml version="1.0" encoding="utf-8"?>
<!-- Generator: Adobe Illustrator 17.0.0, SVG Export Plug-In . SVG Version: 6.00 Build 0)  -->
<!DOCTYPE svg PUBLIC "-//W3C//DTD SVG 1.1//EN" "http://www.w3.org/Graphics/SVG/1.1/DTD/svg11.dtd">
<svg version="1.1" id="Layer_1" xmlns="http://www.w3.org/2000/svg" xmlns:xlink="http://www.w3.org/1999/xlink" x="0px" y="0px"
	 width="30px" height="30px" viewBox="13.346 13.346 30 30" enable-background="new 13.346 13.346 30 30" xml:space="preserve">
<path d="M42.346,19.663c-1.029,0.458-2.137,0.766-3.299,0.904c1.187-0.71,2.097-1.836,2.526-3.178
	c-1.11,0.659-2.339,1.137-3.648,1.395c-1.048-1.116-2.541-1.814-4.193-1.814c-3.172,0-5.744,2.572-5.744,5.745
	c0,0.45,0.051,0.888,0.149,1.309c-4.774-0.24-9.008-2.526-11.841-6.002c-0.494,0.848-0.778,1.835-0.778,2.888
	c0,1.993,1.014,3.751,2.555,4.781c-0.941-0.03-1.827-0.289-2.602-0.719c-0.001,0.024-0.001,0.048-0.001,0.073
	c0,2.783,1.98,5.104,4.608,5.633c-0.482,0.131-0.99,0.201-1.514,0.201c-0.371,0-0.73-0.036-1.081-0.103
	c0.732,2.282,2.853,3.943,5.366,3.989c-1.966,1.541-4.442,2.459-7.134,2.459c-0.463,0-0.921-0.027-1.37-0.081
	c2.543,1.631,5.562,2.581,8.806,2.581c10.567,0,16.344-8.753,16.344-16.344c0-0.249-0.005-0.497-0.016-0.744
	C40.603,21.827,41.577,20.815,42.346,19.663z"/>
</svg>
