<?xml version="1.0" encoding="utf-8"?>
<!-- Generator: Adobe Illustrator 17.0.0, SVG Export Plug-In . SVG Version: 6.00 Build 0)  -->
<!DOCTYPE svg PUBLIC "-//W3C//DTD SVG 1.1//EN" "http://www.w3.org/Graphics/SVG/1.1/DTD/svg11.dtd">
<svg version="1.1" id="Layer_1" xmlns="http://www.w3.org/2000/svg" xmlns:xlink="http://www.w3.org/1999/xlink" x="0px" y="0px"
	 width="30px" height="30px" viewBox="241 241 30 30" enable-background="new 241 241 30 30" xml:space="preserve">
<path d="M267.241,262.73c-0.55,0.778-1.203,1.524-1.95,2.219c-0.736,0.684-1.566,1.296-2.458,1.804s-1.856,0.913-2.852,1.193
	c-0.996,0.28-2.053,0.425-3.142,0.425c-1.649,0-3.236-0.27-4.719-0.788c-1.473-0.519-2.779-1.296-3.889-2.323
	c-1.11-1.016-2.25-2.686-2.924-4.252c-0.601-1.39-0.84-2.883-0.84-5.133c0-1.618,0.373-3.422,1.016-4.936
	c0.622-1.452,1.483-2.738,2.582-3.827c1.079-1.068,2.385-1.929,3.899-2.572c1.359-0.57,2.956-0.85,4.884-0.85
	c1.545,0,3.007,0.249,4.345,0.726c1.327,0.477,2.479,1.161,3.433,2.033c0.902,0.819,1.452,1.804,2.043,3.132
	c0.519,1.161,0.705,2.167,0.705,3.723c0,1.286-0.228,2.499-0.674,3.619c-0.446,1.099-0.778,1.763-1.452,2.593
	c-0.684,0.819-1.099,1.317-1.877,1.773c-0.892,0.519-1.587,0.767-2.178,0.767c-0.373,0-0.653-0.073-0.809-0.207
	c-0.156-0.135-0.249-0.311-0.28-0.56c-0.041-0.29-0.01-0.653,0.104-1.079c0.114-0.456,0.29-0.892,0.508-1.421l3.93-10.567h-1.846
	l-0.643,1.711c-0.394-0.633-0.944-1.193-1.649-1.607c-1.089-0.633-2.022-0.913-3.236-0.913c-1.4,0-2.696,0.363-3.858,1.079
	c-1.141,0.705-2.126,1.618-2.924,2.727c-0.778,1.068-0.964,1.628-1.338,2.738l-0.062,0.176c-0.436,1.286-0.653,2.551-0.653,3.754
	c0,0.798,0.145,1.556,0.425,2.261c0.28,0.705,0.664,1.327,1.151,1.846c0.487,0.529,1.079,0.944,1.753,1.255
	c0.674,0.311,1.421,0.467,2.209,0.467c0.881,0,1.721-0.145,2.707-0.487c0.653-0.228,1.234-0.601,1.804-1.182
	c0.104,0.332,0.28,0.622,0.55,0.881c0.519,0.519,1.213,0.788,2.064,0.788c0.892,0,1.846-0.311,3.007-0.964
	c1.027-0.581,1.628-1.244,2.416-2.188c0.85-1.016,1.276-1.867,1.753-3.08c0.519-1.296,0.778-2.696,0.778-4.179
	c0-1.867-0.249-3.132-0.882-4.521c-0.684-1.483-1.369-2.676-2.489-3.671c-1.13-0.996-2.479-1.773-3.993-2.313
	c-1.504-0.529-3.142-0.799-4.843-0.799c-2.084,0-3.858,0.311-5.413,0.944c-1.711,0.695-3.204,1.659-4.459,2.862
	c-1.265,1.224-2.281,2.686-3.007,4.345c-0.757,1.721-1.182,3.806-1.182,5.714c0,2.603,0.321,4.418,1.068,6.056
	c0.83,1.794,2.178,3.671,3.453,4.77c1.307,1.13,2.81,1.981,4.48,2.51c1.649,0.529,3.35,0.799,5.061,0.799
	c1.182,0,2.364-0.166,3.526-0.477c1.161-0.321,2.281-0.767,3.329-1.359c1.047-0.581,2.022-1.296,2.924-2.136
	c0.892-0.84,1.929-2.157,2.281-2.79c0.135-0.249,0.228-0.446,0.301-0.602h-1.919L267.241,262.73z M258.053,259.982
	c-0.456,0.581-0.799,0.985-1.224,1.265c-0.456,0.311-0.819,0.508-1.286,0.612c-0.477,0.124-0.964,0.176-1.421,0.176
	c-0.581,0-1.12-0.104-1.597-0.311c-0.487-0.207-0.902-0.498-1.255-0.871c-0.353-0.373-0.633-0.819-0.84-1.317
	c-0.197-0.498-0.301-1.058-0.301-1.659c0-0.985,0.187-2.043,0.55-3.142c0.041-0.124,0.083-0.249,0.114-0.353
	c0.29-0.892,0.446-1.193,0.985-2.074c0.591-0.975,1.462-1.721,2.385-2.333c0.892-0.601,1.887-0.902,2.956-0.902
	c0.436,0,0.892,0.052,1.369,0.156c0.373,0.083,0.581,0.197,0.933,0.404c0.062,0.031,0.114,0.062,0.176,0.104
	c0.404,0.228,0.767,0.529,1.078,0.902c0.28,0.332,0.498,0.767,0.653,1.276l-2.136,5.994
	C258.862,258.748,258.479,259.443,258.053,259.982z"/>
</svg>
