<?xml version="1.0" encoding="utf-8"?>
<!-- Generator: Adobe Illustrator 17.0.0, SVG Export Plug-In . SVG Version: 6.00 Build 0)  -->
<!DOCTYPE svg PUBLIC "-//W3C//DTD SVG 1.1//EN" "http://www.w3.org/Graphics/SVG/1.1/DTD/svg11.dtd">
<svg version="1.1" id="Layer_1" xmlns="http://www.w3.org/2000/svg" xmlns:xlink="http://www.w3.org/1999/xlink" x="0px" y="0px"
	 width="30px" height="30px" viewBox="-3 -3 30 30" enable-background="new -3 -3 30 30" xml:space="preserve">
<path d="M4.078,25.95H-1.9V6.021h5.979V25.95z M26,25.95h-5.979V15.304c0-2.774-0.988-4.155-2.947-4.155
	c-1.552,0-2.537,0.773-3.031,2.322c0,2.515,0,12.479,0,12.479H8.064c0,0,0.08-17.936,0-19.929h4.719l0.365,3.986h0.124
	c1.226-1.993,3.185-3.344,5.871-3.344c2.043,0,3.695,0.568,4.956,1.995C25.368,10.087,26,12.004,26,14.696V25.95z"/>
<ellipse cx="1.089" cy="1.039" rx="3.089" ry="2.989"/>
</svg>
