<svg xmlns="http://www.w3.org/2000/svg" width="180" height="80" viewBox="0 0 180 80"><circle fill="#6A926A" cx="53.764" cy="66.629" r="10.014"/><circle fill="#00929F" cx="90" cy="66.629" r="10.015"/><circle fill="#35A492" cx="126.235" cy="66.629" r="10.015"/><g fill="#B3B3B3"><path d="M12.41 8.546c0 .56-.183 1.024-.548 1.39-.367.366-.83.55-1.39.55-.56 0-1.024-.184-1.39-.55-.367-.366-.55-.83-.55-1.39 0-.56.184-1.023.55-1.39.366-.366.83-.55 1.39-.55.56 0 1.023.185 1.39.55.365.367.55.83.55 1.39zm-.71 39.36H9.244V17.272H11.7v30.637zM34.836 47.907H30.44c-2.886 0-5.095-.764-6.624-2.29-1.53-1.527-2.294-3.688-2.294-6.486V8.87h2.456v8.402h10.858V19.6H23.98v19.777c0 1.896.537 3.404 1.615 4.524 1.077 1.122 2.52 1.68 4.33 1.68h4.913v2.327zM67.8 47.907h-2.457V32.59c0-3.706-1.174-6.905-3.522-9.6-2.348-2.69-5.33-4.04-8.95-4.04-3.232 0-6.1 1.316-8.597 3.943-2.5 2.63-3.75 5.86-3.75 9.695s1.25 7.067 3.75 9.695c2.5 2.63 5.365 3.942 8.596 3.942 1.938 0 3.66-.365 5.17-1.1 1.507-.73 2.972-1.852 4.394-3.36v2.91c-1.38 1.162-2.79 2.1-4.233 2.81-1.443.712-3.22 1.067-5.33 1.067-4.18 0-7.714-1.508-10.6-4.524-2.888-3.016-4.332-6.83-4.332-11.44 0-4.566 1.432-8.37 4.298-11.408 2.865-3.038 6.41-4.556 10.632-4.556 4.18 0 7.712 1.51 10.6 4.524 2.886 3.017 4.33 6.83 4.33 11.44v15.32zM80.208 47.907h-2.456V2.6h2.456v45.307zM119.697 32.59c0 4.394-1.498 8.154-4.492 11.277-2.996 3.125-6.69 4.687-11.084 4.687-4.353 0-8.024-1.562-11.02-4.687-2.995-3.123-4.49-6.883-4.49-11.278s1.495-8.155 4.49-11.28c2.995-3.123 6.667-4.685 11.02-4.685s8.036 1.573 11.052 4.718c3.016 3.146 4.525 6.895 4.525 11.246zm-2.65 0c0-3.663-1.23-6.852-3.684-9.566-2.457-2.714-5.537-4.072-9.242-4.072-3.663 0-6.73 1.368-9.21 4.104-2.478 2.737-3.715 5.914-3.715 9.533 0 3.662 1.228 6.85 3.684 9.564 2.454 2.715 5.534 4.072 9.24 4.072 3.663 0 6.73-1.367 9.21-4.104s3.717-5.913 3.717-9.533zM154.275 32.59c0 4.567-1.434 8.37-4.297 11.407-2.867 3.038-6.41 4.557-10.633 4.557-4.18 0-7.713-1.508-10.6-4.524-2.887-3.016-4.33-6.83-4.33-11.44 0-4.566 1.432-8.37 4.297-11.408 2.865-3.038 6.41-4.556 10.633-4.556 2.025 0 3.79.366 5.3 1.1 1.51.732 2.93 1.658 4.267 2.778v2.908c-1.467-1.508-2.92-2.627-4.363-3.36-1.444-.733-3.18-1.1-5.204-1.1-3.232 0-6.098 1.315-8.596 3.942-2.5 2.63-3.748 5.86-3.748 9.695 0 3.834 1.248 7.066 3.748 9.694 2.498 2.63 5.363 3.942 8.596 3.942 3.576 0 6.55-1.357 8.92-4.072 2.37-2.714 3.555-5.902 3.555-9.565V2.6h2.456v29.99zM176.703 19.598h-2.586c-2.5 0-4.697 1.164-6.592 3.49-1.896 2.327-2.844 5.257-2.844 8.79v16.03h-2.456V17.27h2.457v5.883c.82-1.637 2.07-3.027 3.75-4.17 1.68-1.14 3.49-1.712 5.43-1.712h2.843V19.6z"/></g></svg>